ply
format ascii 1.0
element vertex 445
property float x
property float y
property float z
property uchar red
property uchar green
property uchar blue
end_header
9.538431748449312 -6.021426138843436 14.470001293058289 255 0 0
-16.500011838086845 -2.9555165629343922 19.76490008222231 255 0 0
-15.716714388635642 -3.04956465427912 20.381413311866183 255 0 0
-16.501900205211342 -2.6873361495463484 19.799801292454678 255 0 0
-14.804283581748892 -3.3655039230521266 21.564909795938455 255 0 0
-14.58963071917742 -1.516041384303226 21.906858450457356 255 0 0
-13.567679843632842 -3.7137611160461805 24.21425378201058 255 0 0
-15.762324412789798 -5.18440567672884 25.47100025554333 255 0 0
-11.85328376950961 -1.3477235744641887 30.250464187125566 255 0 0
-14.764265525016658 -5.131594549342989 28.72348543386223 255 0 0
-11.871045201141097 -1.304711067122715 30.54152808265234 255 0 0
-12.129354615024903 -9.600588752036348 29.81091417845801 255 0 0
-12.134269103675004 -9.20740302143137 29.931237306510774 255 0 0
-12.644089981710597 -2.5011890014267926 31.333336234572258 255 0 0
-10.259639624070179 -7.051588736616381 31.529583306583916 255 0 0
-9.446143819770441 -10.684362866960335 30.834710203921638 255 0 0
-12.215854275408988 -7.1060982105109085 31.26249193960981 255 0 0
-12.254192205929614 -1.7263636278211996 31.977343192578758 255 0 0
-16.93565077599786 -5.8681344113145935 31.062065674261127 255 0 0
-13.94556371503165 -5.827686901514005 32.52298910375717 255 0 0
-14.062327703239669 -5.974189146775832 32.626949940798255 255 0 0
-11.029572097686755 -6.934835476960929 33.61154991418628 255 0 0
-17.094044150575836 -9.204590374804228 30.952023551249507 255 0 0
-12.549480692366393 -6.501124749009639 34.627723705130414 255 0 0
-7.564171018308847 -5.882477181910803 36.36915768915672 255 0 0
-10.180446634426364 -9.596928029343934 36.62531487698741 255 0 0
-10.196124979947479 -8.069569484123999 36.98275331375948 255 0 0
-13.887867393643226 0.7047414452204712 37.614787896054544 255 0 0
-8.773564533918497 -9.101914372766345 39.57079150321153 255 0 0
-9.184509349537626 -7.491729341865962 39.98444804481367 255 0 0
-7.850842880193838 -11.831119620626282 39.22510303313181 255 0 0
-9.18815224320041 -7.062700780436031 40.060324337872714 255 0 0
-7.273897954763579 -4.341509405681586 41.198396457920616 255 0 0
-5.755184439524843 -8.993431271579594 40.69615232244391 255 0 0
-5.31252440103595 -7.299609447294125 41.67845740108338 255 0 0
-4.802702140566703 -8.99496521731908 41.839600024385504 255 0 0
-5.149912521101686 -13.169620030992172 41.09878655513174 255 0 0
-5.155406052573176 -12.735012087664343 41.23376120384256 255 0 0
-8.147733783136223 -8.782307027171347 42.05302818072018 255 0 0
-4.440090307388073 -10.477632758969111 43.91610984707504 255 0 0
-4.27165194651246 -10.558712707141936 43.92858462061714 255 0 0
-13.91837149677989 -11.755953422874986 42.11806390042137 255 0 0
-4.669617048994537 -10.928113671684537 44.41708563416788 255 0 0
-4.674468727595465 -10.459546244569442 44.528089654844706 255 0 0
-3.6349839926230665 -11.727098884745125 45.0218425072143 255 0 0
-14.5019301973972 -10.624771124024976 43.16825469003917 255 0 0
-11.354628156430842 -13.440317329262344 47.128087127913616 255 0 0
-11.364263698923287 -12.59468087750135 47.356764469677174 255 0 0
-4.251788846601732 -7.206287185395511 50.10175044299045 255 0 0
-4.348117190562183 -7.943061314796661 50.229904982763514 255 0 0
-0.8638278776880763 -9.296291939765362 50.91484616941243 255 0 0
-0.40516465582300765 -16.834100827963518 50.54022615308054 255 0 0
-1.4179682361360864 -11.066354520444902 52.76116055400444 255 0 0
0.11226553538034745 -12.377082185533467 53.08146414936366 255 0 0
-2.2454803858237775 -3.38373083245879 54.33488442908984 255 0 0
0.11176980795278749 -12.783648967522009 53.13969939735003 255 0 0
-0.10493070593276119 -11.317290641003297 54.03272976837739 255 0 0
1.3177723168069384 -12.612841318389309 56.84551194872487 255 0 0
1.5333807813790623 -12.81166379449231 57.282384367782974 255 0 0
-38.98648558336338 -12.1536658212962 54.38613241966228 255 0 0
-38.99413739693084 -11.339773672629125 54.553954526368365 255 0 0
3.240841350940224 -3.264075779265308 16.626190389505936 255 0 0
13.583038311550144 -0.8013871077110417 17.211257604541558 255 0 0
-15.678146293831245 -2.2679656607635867 18.573621053212506 255 0 0
-15.475400773618828 -2.0401766209814403 18.76786128868917 255 0 0
-15.728208144025192 -2.97687673674976 19.584122127098322 255 0 0
-15.502694895512123 -4.13054001779815 19.562427531299885 255 0 0
-15.732119673941991 -2.4087314534495126 19.655192531517084 255 0 0
-15.5103466842797 -3.2200903330940704 19.72090456112887 255 0 0
-15.125405449303512 -3.042508597712508 20.626122251650116 255 0 0
-15.127279979733732 -2.7755412974304994 20.660694961293483 255 0 0
-15.132254458328136 -3.3695602790226555 20.688490718792238 255 0 0
-14.541317687746455 -3.0119517203532156 22.008824744441196 255 0 0
-14.543172458233276 -2.7364226911644356 22.041932119562734 255 0 0
-15.11788173297316 -6.566617707076894 21.221879198150564 255 0 0
-14.918868093966278 -3.440985084704255 22.065276933387675 255 0 0
-13.51070715554198 -2.9504819289116715 23.61397665333066 255 0 0
-13.267155812299578 -1.2134287662529406 23.894079783987532 255 0 0
-14.413421109082027 -4.051352608573336 24.131226901472157 255 0 0
-12.686451861757925 -4.500960133715228 26.369029714731877 255 0 0
-12.402037541905726 -4.520029383927445 26.501011682868455 255 0 0
-17.524367573982328 -5.657921731283743 23.271460773552455 255 0 0
-11.62093302118516 -4.360950879934053 27.183786375238384 255 0 0
-16.090976723323106 -5.298949172099884 26.048946300871584 255 0 0
-16.09378588266157 -4.979724564835006 26.108581022075946 255 0 0
-14.713147609398145 -5.2130421073611615 28.52969860959523 255 0 0
-11.675778444991375 -4.933662154776964 30.51896017934008 255 0 0
-13.163703957052112 -5.251552324004451 30.59758523567237 255 0 0
-12.497245063103597 -6.788358966871396 30.581108429378578 255 0 0
-12.535876974455661 -6.344580406466457 31.064343817474736 255 0 0
-8.862461483444633 -5.773782246950704 34.799869430668444 255 0 0
-8.491882273542334 -5.847720637974698 34.880138196087444 255 0 0
-12.546609912083191 -5.8029244245852 34.389410664394504 255 0 0
-12.543703078127297 -5.8799716439681085 34.46073262279862 255 0 0
-10.382372766942115 -10.330126870931526 36.162370771102516 255 0 0
-10.411884485163784 -7.489044487042787 36.838466234063226 255 0 0
-9.913452187749662 -2.9367863320017786 37.62467329502609 255 0 0
-6.454842736517863 -6.925951909061769 38.60774480009561 255 0 0
-6.681862417184793 -1.8678418105945098 39.86160818774185 255 0 0
-5.713747762402114 -7.549223803600063 39.355528051071836 255 0 0
-5.7173454475680865 -7.133560811615902 39.43124090606714 255 0 0
-5.795805309919026 -7.342516872700311 40.19815430247169 255 0 0
-5.80869579106397 -5.7103958826056616 40.45561326032702 255 0 0
-6.056414360104021 -7.5015000171326705 40.25159835699352 255 0 0
-8.108475623007186 -5.897384732248262 40.15259583425578 255 0 0
-6.60406155675131 -4.544196715180346 41.022031394145735 255 0 0
-6.638233603760941 -8.803493847468015 40.44326634412408 255 0 0
-5.536941679595303 -8.892471015935545 40.58946786476622 255 0 0
-5.550111782818918 -8.694947276500345 40.71648154334285 255 0 0
-5.223108872197018 -7.493981344664142 41.502372898947044 255 0 0
-4.916025387516052 -3.2828131395576605 42.65087945123385 255 0 0
-3.7769711290978 -7.850138177615802 42.732333671058676 255 0 0
-7.794485174738009 -10.352890286047847 41.7755711879498 255 0 0
-7.617876424551077 -6.198356265144166 43.93391942109014 255 0 0
-4.313940940863374 -14.170841699107436 42.531956475387 255 0 0
-7.621179552918944 -5.732321077740669 43.99526521713173 255 0 0
-4.382485760026051 -9.282952915389863 43.99321192542648 255 0 0
-3.512818467246373 -8.479844005831438 45.7824064285216 255 0 0
-4.721133654177271 -11.662284646724178 46.04017191478343 255 0 0
-3.006354392955393 -11.513665085418848 46.59610039266375 255 0 0
-3.145482307253282 -17.34488338303793 45.47474805368497 255 0 0
-2.005126075803777 -9.173751351269336 48.71218904288153 255 0 0
-3.7362144431146564 -13.816917671335576 48.227793290535274 255 0 0
-2.804817866342344 -11.01591390256051 48.999526458483224 255 0 0
-2.8215745498382283 -9.213684677314708 49.365114817730046 255 0 0
-4.540511974412861 -15.07652307342046 48.09879644371045 255 0 0
-2.2171542166793228 -9.00775747110128 49.73936344278648 255 0 0
-4.546784115344408 -14.572731503662306 48.25216722052791 255 0 0
-0.9212004175828833 -9.869915953124888 51.031300925892054 255 0 0
-0.7469082379354434 -9.656765304599405 51.37911011963509 255 0 0
-0.480815722469466 -9.914706235688133 52.27592213521519 255 0 0
-0.49231781954149983 -8.545452200865551 52.514078034263385 255 0 0
-0.4658984155087871 -11.66937882211325 52.05938606098945 255 0 0
-0.4820709203310268 -9.940467033030526 52.41324402712394 255 0 0
-0.1374902736711836 -2.2168969350235246 54.06329124098278 255 0 0
-0.14013321345826335 -1.5580555137894252 54.08470325980827 255 0 0
-2.492090058102729 -18.337029184347582 51.35323795448984 255 0 0
-1.997985998726137 -11.94179359790679 53.21375928155265 255 0 0
-2.637434178899862 -1.964381842757124 54.45261971744353 255 0 0
0.6175978508105708 -7.698474632047951 54.571904504831046 255 0 0
0.6493389485480444 -3.4576697792979396 55.93503307724275 255 0 0
0.6665943935475989 -10.350377397825243 55.183807867270055 255 0 0
0.8320018719484941 -4.785842576305035 56.65386197829987 255 0 0
1.2923648214683785 -11.570448910366627 56.30377002866558 255 0 0
1.4126524865401386 -12.19447939479507 56.834740578591244 255 0 0
-39.03187751090268 -11.547882814755992 54.372955112780915 255 0 0
-15.794854254761468 -2.5900318288124686 17.841196785911634 255 0 0
-15.16744643595363 -2.02747016890511 19.6788483709513 255 0 0
-14.821710099405056 -1.93761033298982 19.949477496674398 255 0 0
-15.826097086113991 -1.8467607997329847 19.801138839349996 255 0 0
-15.327789115791411 -2.9879842078201224 20.888687923379482 255 0 0
-14.475469099020263 -8.827673489059555 20.663266463670077 255 0 0
-13.859750018418291 -2.6483689562218067 22.751473779296344 255 0 0
-19.201277957536792 -4.494033456568613 18.897428550835937 255 0 0
-19.226381141581754 -0.8654057106182473 19.355241377386502 255 0 0
-13.35047015134295 -3.5602233167551276 24.169858778644052 255 0 0
-13.579072188379543 -4.322158246877927 25.540342393102947 255 0 0
-12.36474339579783 -4.384083728665884 26.304330541571417 255 0 0
-15.79432255106941 -5.071895269490796 25.739382673360502 255 0 0
-11.149452649157165 -4.386876372262217 28.423622513381734 255 0 0
-10.809828503825708 -4.581177930748601 29.361380121294257 255 0 0
-10.502051984092564 -4.596313176238141 29.470691701391633 255 0 0
-15.079114095350205 -5.240165788970784 28.325281720047514 255 0 0
-15.101448458685182 -5.35018992739422 28.62301158459509 255 0 0
-12.124116931713905 -3.4474469189904777 30.72008182324541 255 0 0
-12.875561906748162 -6.012875433610263 30.869727452814953 255 0 0
-12.89933990312133 -2.6722196064577064 31.31270328814839 255 0 0
-10.588812048007833 -8.177391196977489 33.19687087536151 255 0 0
-14.08600786680055 -7.768278035763616 32.02682227110716 255 0 0
-8.232127751486827 -6.221357789427246 34.828374461208696 255 0 0
-10.631530348064029 -8.18123811464209 36.478054800256054 255 0 0
-10.643151773622053 -6.92074236209663 36.73058115105703 255 0 0
-5.978894973124014 -6.626781831668596 39.375454401844365 255 0 0
-5.982196733903658 -6.2102036043745885 39.44154228368248 255 0 0
-8.135415173972607 -10.063629611533 39.31494035452148 255 0 0
-8.148368107351246 -8.801810386339882 39.61024754064027 255 0 0
-7.783363530512475 -4.808550207428674 40.77645234754605 255 0 0
-5.813863782714358 -11.053313086051787 39.89858984981742 255 0 0
-5.81860749375534 -10.633132187502136 40.010797096084914 255 0 0
-5.795520351873484 -7.009918321813877 42.18374219341423 255 0 0
-4.971741614945063 -8.019434365606879 42.32218169935453 255 0 0
-4.926920475458747 -7.961603704804322 42.43043012339881 255 0 0
-13.451788404699625 -8.541652080458796 43.20184085857719 255 0 0
-12.938632505451405 -13.764998269774786 42.007666772268934 255 0 0
-3.740050267723323 -7.144599464521448 45.64543807623626 255 0 0
-4.298890783123093 -8.26631585798498 45.46693578392718 255 0 0
-3.796720238851075 -10.328752348872353 45.09342454852581 255 0 0
-3.8144488506746943 -8.428119747928335 45.480811174621394 255 0 0
-2.9090256348178265 -8.566888240586733 47.230880577394004 255 0 0
-2.2591948383696514 -9.066439137028981 48.59532306440739 255 0 0
-11.477437414867767 -13.037529299682719 46.95802560272476 255 0 0
-4.242802451754179 -12.954437101292708 48.7099357217578 255 0 0
-2.0187886150106773 -10.473039018381884 49.438216765246196 255 0 0
-2.0327774291000944 -8.916669230940629 49.73840114953664 255 0 0
-3.3001919848761285 -12.285931346410319 49.3643754486951 255 0 0
-1.579697077723204 -11.159906206971675 49.712784987045424 255 0 0
-1.7288522518659721 -10.909984563005157 49.804598871144144 255 0 0
-5.223606534491068 -9.596304054498008 49.82867725205402 255 0 0
-1.7433037977043446 -9.341404242372029 50.11851349471301 255 0 0
-2.6073599640008323 -17.22361357469052 48.20408645794802 255 0 0
-3.2892774087702836 1.4526378783019296 51.086000017439794 255 0 0
-2.7465649006008768 -1.1339471086336057 51.13301330521493 255 0 0
-0.7484523060473419 -9.477263248515293 51.410888287478336 255 0 0
-0.8259391088480288 -10.771533552503643 51.8208847437053 255 0 0
-0.9288237551609358 -12.366483945001802 52.15788036472827 255 0 0
-0.19506262481432632 -10.993777714425809 52.469264500294194 255 0 0
-0.9343456691878649 -11.820842623932135 52.283024498589334 255 0 0
-1.9129244470626323 -14.567508402938866 52.36623050048285 255 0 0
-0.33386831351739543 -13.091194088062368 52.78500505294658 255 0 0
-0.06848632580508786 -14.741470700592814 53.07306580678456 255 0 0
-0.15278425786139574 -4.934993140746636 54.840620692097886 255 0 0
-0.528544616885315 -6.694129418347639 54.976855227004656 255 0 0
0.07684014360017022 -10.122501522313888 54.459685718890434 255 0 0
1.067570078590364 -10.166286143619027 55.837847636215244 255 0 0
1.5375175061611013 -10.609479998257708 56.620009751846446 255 0 0
1.5064224399739605 -9.802883695177286 57.8790937152661 255 0 0
-9.492540309775833 -1.2242526869028627 5.668403621547608 255 0 0
-9.21447731728552 -1.2547819120001547 6.108368236080376 255 0 0
-9.498853512663638 0.9384439884616668 5.662558449251584 255 0 0
-15.32658805215517 -3.427267426493475 19.362800354812734 255 0 0
-15.054907876372761 -2.8061334290143876 20.22663383463755 255 0 0
-14.829974056685916 -2.2895708203709826 21.068749477775683 255 0 0
-14.57030614878048 -5.63382256862886 20.636822741248334 255 0 0
-14.841311814243792 0.55011082249291 21.159309957508768 255 0 0
-14.97128055683774 0.5179035171723284 21.07600612302769 255 0 0
-14.392957591207933 -2.450393760906095 21.958379115566068 255 0 0
-18.845872832608347 -4.241040011180914 18.39504327116 255 0 0
-17.06571505347259 -3.761041143774908 20.153740578844832 255 0 0
-15.243166703790347 -4.583946800679033 22.29447052941723 255 0 0
-14.240031895529796 -1.4611968013840997 23.87269250481479 255 0 0
-14.241330562064867 -1.1695885556590724 23.886322928407065 255 0 0
-11.833029028321185 -2.9563292145424933 25.915763354821948 255 0 0
-11.834849831018806 -2.6588858926110763 25.945655352535727 255 0 0
-12.29814979300808 0.6626478312454246 26.406642261597355 255 0 0
-12.298709509518236 0.96465279579034 26.39545329063002 255 0 0
-17.672680298594585 -5.448897321974762 22.995575481451677 255 0 0
-13.022115660492613 -4.6685478263007205 26.730171403036348 255 0 0
-12.554917719511847 -4.751610290420132 26.938922598680726 255 0 0
-11.03676435797811 -4.631856087191679 29.322893222478825 255 0 0
-12.146299163539956 -3.27653380709205 29.707613485283385 255 0 0
-11.51825218525781 -10.257568358875831 28.927661791275792 255 0 0
-11.261148165211393 -4.513751467033176 30.433205978673602 255 0 0
-11.577792069595784 -4.61041598046712 30.299883962837427 255 0 0
-11.28359998293459 -0.19432114644836923 30.73872452524525 255 0 0
-9.579568025473945 -5.94611169745377 31.118298032677433 255 0 0
-9.582476408187452 -5.606181026033196 31.179126494501027 255 0 0
-12.521658455804182 -7.526266269407734 30.118944135958284 255 0 0
-12.451677461171403 -5.926820668987624 30.767767786492136 255 0 0
-10.099241247541702 -6.272348264647066 31.553425879747863 255 0 0
-10.554837443282327 -5.868181984703016 31.59283761297219 255 0 0
-12.483849140736545 -5.946294312824078 30.871594475667955 255 0 0
-16.9027287304038 -1.7489557007167733 31.13428154143011 255 0 0
-16.871369186950368 -6.344652846835668 30.568439848797233 255 0 0
-17.04374170315575 -6.613964949581541 30.63489312082819 255 0 0
-17.034010191313723 -6.694809894191313 30.72553188679128 255 0 0
-7.174508663401913 -6.088969311601649 36.03235884308772 255 0 0
-10.748871626388008 -11.336594300203398 35.4424598389813 255 0 0
-10.32890493571524 -13.51947810903203 34.802579230143614 255 0 0
-10.421721280841256 -4.905020251917369 36.960003591741895 255 0 0
-14.144613432119264 -13.508381067079425 34.59579752586962 255 0 0
-14.25527458002381 -1.6993588567038103 37.019133658950686 255 0 0
-13.987719217086624 -7.2971098570383015 37.3502254457292 255 0 0
-9.34774068480253 -7.930596617749133 39.56361178762212 255 0 0
-8.359601853940415 -9.366120220588387 39.47508136235816 255 0 0
-7.836100025039678 -11.001918604079972 40.94757771777262 255 0 0
-5.438402122674518 -9.03908352360888 42.7452891065513 255 0 0
-3.5976703527559555 -11.691605116436508 44.57012498312104 255 0 0
-12.537870822671682 -13.693463649507647 42.39698487980952 255 0 0
-3.1212719853358246 -1.7999762868121454 47.19055348694595 255 0 0
-3.123207793591782 -1.3074431052615294 47.20527196768949 255 0 0
-3.1882285370452625 -9.084468855363014 46.361717641822935 255 0 0
-2.3219770647832583 -10.021660870245045 48.09796757745809 255 0 0
-2.326624347041371 -9.517277898949402 48.19891874074739 255 0 0
-11.236924708500936 -12.484646856746961 46.94283223199284 255 0 0
-3.6355215640722696 -2.511232426561241 49.98291818765877 255 0 0
-1.686075800503162 -2.7730787138861523 50.07342692194571 255 0 0
-2.2329601647976167 -7.3415718727982195 49.90926505763568 255 0 0
-2.2367887052230015 -6.8184158317577 49.98201485640464 255 0 0
-3.1059818764373097 -10.886096906868383 49.62004744208891 255 0 0
-2.575003755340911 -10.886223117571282 49.650315176987846 255 0 0
-1.5385845507161149 -10.937207787610552 50.80048721741179 255 0 0
-1.5436014965336116 -10.405675937950233 50.91072377620851 255 0 0
-1.464516036831898 -11.162699160333675 50.98482485043449 255 0 0
-1.6587300598138748 -11.759696733894229 51.55527973615011 255 0 0
-1.1057310904687836 -11.75716284321377 51.570563937523524 255 0 0
-0.5277931103829467 -3.7896105117162904 53.48310360509184 255 0 0
-0.3867554560538493 -10.662725429425862 52.711120068263725 255 0 0
-2.0525709371909797 -14.33531615876615 52.238791599348005 255 0 0
-1.3885241944901217 -14.60671931760979 52.18582111978402 255 0 0
-2.0733741796030425 -12.41553125270213 52.72340722681441 255 0 0
-1.4703143776900869 -5.243583208398247 53.915465787175336 255 0 0
0.0009596098677406191 -12.170108163430337 53.44838420375492 255 0 0
-0.15632652121010954 -15.369210590419318 52.826343725828536 255 0 0
-0.2399536041929896 -6.264962955630442 54.64023769342629 255 0 0
0.12475322587771746 -2.4693375047886574 55.55351816580029 255 0 0
0.12233724653306356 -1.8868770488855897 55.57500790765835 255 0 0
0.6643193560704576 -10.56307151917873 54.734550108942145 255 0 0
1.3810229993153982 -10.753527754907841 56.29348928389327 255 0 0
1.321782417251552 -12.740423351985623 56.95405079743735 255 0 0
-6.992518926710397 -15.52021347042309 58.70731589557508 255 0 0
2.952811401302489 -2.64385796784815 16.51590978786271 255 0 0
-15.404226181505384 -1.1409798315765074 17.83138493043586 255 0 0
-15.49482301085022 -1.446619327390545 18.81471919445431 255 0 0
-14.699901099700131 -1.8636156160851962 20.04161366642375 255 0 0
-15.938294829989948 -6.255745935105572 18.65490480733186 255 0 0
-15.734301282409643 -6.3219561799566675 18.805937409325004 255 0 0
-15.773285956675915 -2.186866996430125 19.662080055822642 255 0 0
-16.082510289459265 -2.0927956004132486 19.67940141890912 255 0 0
-14.918015778186994 -4.765364531478322 20.14467879118322 255 0 0
-14.920955608303236 -4.461922838211009 20.210051862354977 255 0 0
-16.947975222069605 -3.7280169414410964 20.245552114288753 255 0 0
-9.56302884316107 -3.7071913222972595 26.59356619490726 255 0 0
-12.261792935539495 -3.1685497088420727 25.634230672946476 255 0 0
-11.986773359719743 -3.2362221683162242 25.756095832952116 255 0 0
-12.266635791463955 -2.3754544661106283 25.713544458118804 255 0 0
-11.991380651344237 -2.493689248771054 25.83271149663707 255 0 0
-12.81231990534897 -4.630897932194961 26.20136689230944 255 0 0
-15.985731302836873 -4.443870258023158 25.849895708511845 255 0 0
-12.078966014308847 -5.667760956620788 29.381543925225145 255 0 0
-19.91156976462461 -5.469037546917937 25.54691486598275 255 0 0
-11.675417001084643 -8.920710139225637 29.633505757757842 255 0 0
-10.289445291344771 -4.6695239664510995 31.53078081436324 255 0 0
-12.193810005474319 -3.4226650903817726 31.025425239974464 255 0 0
-12.832941999515464 -8.00329438507016 30.05113018199556 255 0 0
-12.69185927773869 -6.048037871738268 30.75408889580687 255 0 0
-12.716980359228375 -2.48981936942439 31.219292279718232 255 0 0
-8.785108970076143 -6.083605463802326 33.63445605098332 255 0 0
-10.550488171765847 -8.19458882630516 32.73608583117279 255 0 0
-17.16092737718689 -8.918894792155003 30.59255889007809 255 0 0
-8.297167739497178 -7.034205228439832 36.78168921305229 255 0 0
-10.750138428631242 -12.873305261140853 34.92470958463639 255 0 0
-10.120248775535192 -2.9730830161581796 37.248257316029004 255 0 0
-10.822175250222987 -6.4239941331485975 36.622027371287274 255 0 0
-10.122335444040043 -2.5684445539914917 37.276343330540215 255 0 0
-6.369928055608441 -6.793698827148086 38.254793344958095 255 0 0
-6.551142209374491 -6.907575406201094 38.49659655820563 255 0 0
-13.969095877244477 -13.205339251135916 34.82047275822315 255 0 0
-14.076491176183678 -1.3647922727736908 37.13551349064813 255 0 0
-13.930662014011562 1.1895807639596243 37.30620859929769 255 0 0
-14.377646894147967 -1.8422782443457912 37.12105192570374 255 0 0
-6.270739068017329 -6.910421364748237 38.93557814552678 255 0 0
-7.9942857651719175 -10.499306168803912 39.00396850666497 255 0 0
-9.456012876940026 -7.737614565315335 39.31325755836533 255 0 0
-5.856780332711132 -9.180162454392935 40.17867294237962 255 0 0
-7.933713165240285 -10.549606760219433 39.48395194126416 255 0 0
-6.363821024414374 -8.82826547769832 40.93516917094753 255 0 0
-5.427394847587551 -7.611589702658252 41.309150036732554 255 0 0
-4.942809285585112 -6.156628278514561 42.094413825421725 255 0 0
-4.203047211816925 -10.703816633129826 43.19907349723903 255 0 0
-4.351317963082026 0.0910550585456434 44.563003060895646 255 0 0
-4.352754010434688 0.6334289065971267 44.556793053190994 255 0 0
-7.318056902333853 -10.791472274260162 42.974308385589495 255 0 0
-7.443787151384704 -5.945349153298349 44.424702391951286 255 0 0
-5.040149190592675 -5.686416004928197 44.98108015502134 255 0 0
-3.939419871652176 -9.377946397658103 44.479552138907735 255 0 0
-4.567122905091869 -9.936302524362642 44.76309576125732 255 0 0
-3.7030633029806634 -6.308526892732621 45.485869388133885 255 0 0
-2.6829121303530834 -5.7621231604894785 48.477582866684635 255 0 0
-2.1855832568340388 -3.3867200207284824 48.71999092921155 255 0 0
-5.050677616804811 0.029159469177522643 50.03360574867944 255 0 0
-1.5221871368890554 -9.127966822932972 49.45216422327831 255 0 0
-1.7214736348124204 -14.67216211886919 48.14232480470096 255 0 0
-1.8329907282707902 0.28262776809112855 50.28881534354065 255 0 0
-4.825631066147674 -3.5851117669656687 50.24993079291679 255 0 0
-1.8599466193153393 -7.619591409946647 50.006535005745874 255 0 0
-4.82825523454765 -3.0558106957656386 50.28327405156124 255 0 0
-2.2632621200291374 -3.5931017877122353 50.456349921422074 255 0 0
-2.8174595520468073 -11.780612048121816 49.18419840894822 255 0 0
-0.5733696485913999 -10.57801928414456 52.279121658430036 255 0 0
-0.57831481393747 -10.03126035362578 52.385571445177376 255 0 0
-2.3475956089328687 -8.969137242324726 53.266883895572015 255 0 0
-0.7162030504346439 -11.852434980694616 53.30990502356544 255 0 0
0.25582486680712424 -8.5426261141733 54.35300449984385 255 0 0
1.2925898495170016 -10.754172994811213 56.837912090471605 255 0 0
-6.782475637452837 -16.155425022030453 58.63462428700326 255 0 0
3.0645187233474434 -3.2877397036346947 16.27709877181882 255 0 0
3.051168619968463 -3.2957394886325977 16.317684214342734 255 0 0
-15.960615296795185 -0.8481595319218532 16.80753014148865 255 0 0
-15.88377760216692 -1.054706539885919 17.619050022282494 255 0 0
-16.276263241955906 -1.6131804831820153 17.88433386301088 255 0 0
-16.284912798806758 1.652812708255785 17.84700895074281 255 0 0
-14.73801797373978 -1.5125902175708814 19.59597828456726 255 0 0
-14.891381268890287 -3.8672921685184187 20.419999327542136 255 0 0
-17.08842758672745 -3.4858915064543967 19.906353016882868 255 0 0
-14.537912934375525 -2.871912265065767 22.0061760351253 255 0 0
-14.99040828858127 -4.670969968733691 23.609845200310687 255 0 0
-13.07129825892692 -3.968522360044079 25.590100854935674 255 0 0
21.578847291404937 -4.250863841426976 19.759104124357528 255 0 0
-11.200787334398578 -3.95739523148047 27.67497155469784 255 0 0
-15.932528200624724 -4.198853526602309 25.66880635028663 255 0 0
-12.453097994280299 -7.948074346325559 29.654071893548203 255 0 0
-12.684123844404906 -10.271884945502594 29.292505956843414 255 0 0
-12.352257109129308 -5.978579602889955 30.732090346088736 255 0 0
-10.219345260166351 -3.592531082681084 31.85734868715126 255 0 0
-12.513246187239226 -6.049380207465021 30.778395655779597 255 0 0
-10.271564431164661 -3.6035824287654377 31.959846471184058 255 0 0
-16.853209986960714 -5.14587619508535 30.505857732325058 255 0 0
-11.320921690261306 -11.944001267654551 31.368789756677955 255 0 0
-17.316168557347382 -9.251612942700957 29.600923240013024 255 0 0
-14.602469341721758 -5.112993795741207 31.963779982285583 255 0 0
-16.959937786274708 -7.057188087393726 30.639857096037957 255 0 0
-16.994870231832266 -2.3824878482220324 31.31319297973113 255 0 0
-12.617748894100448 -6.461403902462349 34.4007142248823 255 0 0
-8.183168023072646 -9.512958036776853 35.19585658127493 255 0 0
-7.766161617574679 -6.4781735007535755 35.96154161871186 255 0 0
-12.906325386109007 -6.034130677120148 34.57615042788752 255 0 0
-9.172448445944669 -11.958969772212676 34.99525766732078 255 0 0
-9.177458869532837 -11.57997549113115 35.12004574220254 255 0 0
-10.196312261097397 -3.7835443552466232 37.23423147461525 255 0 0
-13.810265583133214 -3.627531568910937 36.77669668759374 255 0 0
-8.416144046025204 -2.497192229467156 40.02146653400959 255 0 0
-8.41907476053913 -1.8539953427376787 40.0536663126943 255 0 0
-7.6241089365456345 -2.3994264331033444 40.67440911291744 255 0 0
-5.618391882001485 -10.889162383030808 39.8631793046882 255 0 0
-5.6230788793663615 -10.469631215024833 39.973621784155746 255 0 0
-5.573840748294766 -5.521060520841973 41.23565130903049 255 0 0
-5.576828573811038 -5.086186799741758 41.289851842174194 255 0 0
-5.959749339260203 -8.246384074166729 41.06131222392059 255 0 0
-5.01875860660489 -14.471245146199612 40.041476646728356 255 0 0
-8.124501356663474 -4.776372259264708 41.79646871580882 255 0 0
-5.194980132225716 -8.940809101014839 42.287752925912855 255 0 0
-7.198191287844794 -12.217866355233891 41.9931168559049 255 0 0
-7.339367656314193 -11.940949484766202 42.428269600054215 255 0 0
-7.40686877413442 -4.143612702412261 43.84896657925888 255 0 0
-7.858766619719401 -9.848174753333321 46.47441310397445 255 0 0
-4.443307561982491 -5.790578699441846 49.40187417289602 255 0 0
-2.7022525089860068 -16.95125055345003 46.92097575392728 255 0 0
-2.7807806726276825 -10.260480203828001 48.804115251642386 255 0 0
-3.0819957742199557 -10.57653056477752 49.44560083229287 255 0 0
-1.3889694808771247 -11.929500871774778 51.080355170809774 255 0 0
-0.38683790708830484 -9.238269314920206 51.64627865124513 255 0 0
-1.3943170852717228 -11.395037352846701 51.200963758984585 255 0 0
-0.47562478753366927 -10.46465250571686 51.7174522914639 255 0 0
-0.49199985509390304 -8.565828352436737 52.06139487316819 255 0 0
-1.895549836237548 -11.048601184892592 52.19537859195863 255 0 0
-0.5620814606733615 -16.342558008224017 50.829955374669055 255 0 0
-0.8224807381398141 -12.144183164666426 52.44968472546724 255 0 0
0.39990152457972666 -2.3218752905582014 54.41273480745572 255 0 0
-1.9949252622446647 0.8950055582353843 54.87241994910029 255 0 0
0.5719821425137033 -19.383842821008283 52.39413368435103 255 0 0
0.06238582916076333 -12.29877983555094 54.91653479851905 255 0 0
1.4050298774009184 -10.510342835698763 56.63295560132416 255 0 0
1.2090298223265843 -12.09031160081883 56.821870324241765 255 0 0
1.1989458090211331 -10.99927134577743 57.041251244468256 255 0 0
-7.124202944005228 -13.770844597497042 59.1722192278526 255 0 0
